<svg xmlns="http://www.w3.org/2000/svg" width="32" height="32" viewBox="0 0 32 32" fill="none">
  <defs>
    <linearGradient id="ams-brand" x1="0" y1="0" x2="32" y2="32" gradientUnits="userSpaceOnUse">
      <stop offset="0" stop-color="hsl(217, 91%, 53%)"/>
      <stop offset="1" stop-color="hsl(217, 91%, 42%)"/>
    </linearGradient>
  </defs>
  <rect width="32" height="32" rx="7" fill="url(#ams-brand)"/>
  <g transform="translate(7 7) scale(0.75)" fill="none" stroke="#ffffff" stroke-width="2.2" stroke-linecap="round" stroke-linejoin="round">
    <path d="m7.5 4.27 9 5.15"/>
    <path d="M21 8a2 2 0 0 0-1-1.73l-7-4a2 2 0 0 0-2 0l-7 4A2 2 0 0 0 3 8v8a2 2 0 0 0 1 1.73l7 4a2 2 0 0 0 2 0l7-4A2 2 0 0 0 21 16Z"/>
    <path d="M3.3 7 12 12l8.7-5"/>
    <path d="M12 22V12"/>
  </g>
</svg>
